HIERARCHY
ROOT Hips
{
  OFFSET 0.000000 0.000000 0.000000
  CHANNELS 6 Xposition Yposition Zposition Zrotation Yrotation Xrotation
  JOINT Spine
  {
    OFFSET -0.020961 2.022879 -0.147518
    CHANNELS 3 Zrotation Yrotation Xrotation
    JOINT Spine1
    {
      OFFSET 0.034773 2.031355 -0.023581
      CHANNELS 3 Zrotation Yrotation Xrotation
      JOINT Spine2
      {
        OFFSET 0.044228 2.037827 0.045739
        CHANNELS 3 Zrotation Yrotation Xrotation
        JOINT Neck
        {
          OFFSET 0.001735 1.743591 0.193358
          CHANNELS 3 Zrotation Yrotation Xrotation
          JOINT Head
          {
            OFFSET -0.008631 1.772389 -0.081202
            CHANNELS 3 Zrotation Yrotation Xrotation
            End Site
            {
              OFFSET 0 0 0
            }
          }
        }
        JOINT LeftShoulder
        {
          OFFSET 3.686852 1.326873 -0.673670
          CHANNELS 3 Zrotation Yrotation Xrotation
          JOINT LeftArm
          {
            OFFSET 4.764680 -0.000000 -0.000000
            CHANNELS 3 Zrotation Yrotation Xrotation
            JOINT LeftForeArm
            {
              OFFSET 3.527120 -0.000000 -0.000000
              CHANNELS 3 Zrotation Yrotation Xrotation
              JOINT LeftHand
              {
                OFFSET 0.859564 -0.000000 -0.000000
                CHANNELS 3 Zrotation Yrotation Xrotation
                JOINT LeftHandIndex1
                {
                  OFFSET 0.693002 -0.000000 -0.000000
                  CHANNELS 3 Zrotation Yrotation Xrotation
                  End Site
                  {
                    OFFSET 0 0 0
                  }
                }
              }
            }
          }
        }
        JOINT RightShoulder
        {
          OFFSET -3.313040 1.282684 -0.973569
          CHANNELS 3 Zrotation Yrotation Xrotation
          JOINT RightArm
          {
            OFFSET -4.905770 -0.000000 -0.000000
            CHANNELS 3 Zrotation Yrotation Xrotation
            JOINT RightForeArm
            {
              OFFSET -3.426920 -0.000000 0.000000
              CHANNELS 3 Zrotation Yrotation Xrotation
              JOINT RightHand
              {
                OFFSET -0.740957 -0.000000 -0.000000
                CHANNELS 3 Zrotation Yrotation Xrotation
                JOINT RightHandIndex1
                {
                  OFFSET -0.597378 -0.000000 -0.000000
                  CHANNELS 3 Zrotation Yrotation Xrotation
                  End Site
                  {
                    OFFSET 0 0 0
                  }
                }
              }
            }
          }
        }
      }
    }
  }
  JOINT LeftUpLeg
  {
    OFFSET 2.525544 -6.938881 0.000000
    CHANNELS 3 Zrotation Yrotation Xrotation
    JOINT LeftLeg
    {
      OFFSET 2.566542 -7.051522 0.000000
      CHANNELS 3 Zrotation Yrotation Xrotation
      JOINT LeftFoot
      {
        OFFSET 0.216985 -0.596163 1.853691
        CHANNELS 3 Zrotation Yrotation Xrotation
        JOINT LeftToeBase
        {
          OFFSET 0.000000 -0.000000 0.978318
          CHANNELS 3 Zrotation Yrotation Xrotation
          End Site
          {
            OFFSET 0 0 0
          }
        }
      }
    }
  }
  JOINT RightUpLeg
  {
    OFFSET -2.534248 -6.962796 0.000000
    CHANNELS 3 Zrotation Yrotation Xrotation
    JOINT RightLeg
    {
      OFFSET -2.584125 -7.099832 0.000000
      CHANNELS 3 Zrotation Yrotation Xrotation
      JOINT RightFoot
      {
        OFFSET -0.264373 -0.726359 1.922409
        CHANNELS 3 Zrotation Yrotation Xrotation
        JOINT RightToeBase
        {
          OFFSET -0.000000 -0.000000 1.026670
          CHANNELS 3 Zrotation Yrotation Xrotation
          End Site
          {
            OFFSET 0 0 0
          }
        }
      }
    }
  }
}
MOTION
Frames: 16
Frame Time: 0.00833333
-4.367870 17.035200 -13.662900 4.408220 4.124580 -2.469490 -22.501800 5.891800 6.294530 0.000000 0.000000 29.828300 16.361400 0.000000 -21.416600 0.000000 0.000000 -32.806100 8.003740 -2.957100 -22.726400 0.000000 0.000000 45.117300 -10.124900 0.000000 -15.804200 0.000000 0.000000 8.157900 -9.253910 -4.175910 7.792420 2.068040 -6.343150 -0.610414 8.007810 -2.943970 -3.771890 -5.039950 -7.539300 -0.648761 2.641840 -5.163460 3.418160 0.000000 0.000000 0.000000 85.675200 22.403700 -28.872600 0.000000 0.000000 38.255200 -14.150800 0.000000 -6.127850 0.000000 0.000000 7.125020 0.000000 0.000000 0.000000 -48.544500 -2.064300 21.213400 0.000000 0.000000 134.288000 -38.545000 0.000000 -14.827100 0.000000 0.000000 7.125020
-4.269290 17.032500 -13.789000 4.640220 4.276620 -2.183010 -23.148800 6.313250 5.758360 0.000000 0.000000 29.386200 16.643100 0.000000 -21.638700 0.000000 0.000000 -33.569800 7.309520 -2.942500 -23.381600 0.000000 0.000000 44.871100 -10.106100 0.000000 -15.170800 0.000000 0.000000 8.524480 -9.543740 -4.243710 7.765160 1.939860 -6.460170 -0.547506 8.033500 -3.006780 -3.650700 -4.824560 -7.516040 -0.649519 2.604820 -5.139160 3.309410 0.000000 -0.000000 0.000000 85.984900 21.505700 -28.777700 0.000000 0.000000 39.510400 -14.943100 0.000000 -6.519830 0.000000 0.000000 7.125020 0.000000 -0.000000 0.000000 -48.541000 -2.130550 21.717100 0.000000 0.000000 134.242000 -38.746400 0.000000 -15.129300 0.000000 0.000000 7.125020
-4.172380 17.026000 -13.914500 4.581330 4.401140 -1.959860 -23.476000 6.593970 5.209250 0.000000 0.000000 29.088400 16.737300 0.000000 -22.143100 0.000000 0.000000 -33.243400 6.958660 -2.918320 -23.864400 0.000000 0.000000 44.440000 -10.158700 0.000000 -14.431500 0.000000 0.000000 8.889340 -9.379610 -4.121460 7.749860 1.928730 -6.275320 -0.428058 7.909050 -2.927380 -3.571140 -5.234660 -7.647450 -0.737624 2.812390 -5.227820 3.301470 -0.000000 -0.000000 0.000000 86.680100 20.440300 -28.499900 0.000000 0.000000 40.536700 -16.377200 0.000000 -7.146120 0.000000 0.000000 7.125020 -0.000000 -0.000000 0.000000 -48.225000 -2.661500 21.991100 0.000000 0.000000 134.207000 -38.606300 0.000000 -15.124000 0.000000 0.000000 7.125020
-4.077490 17.024300 -14.039900 4.519930 4.505280 -1.768370 -23.727700 6.970150 4.680210 0.000000 0.000000 28.855000 16.530200 0.000000 -22.677200 0.000000 0.000000 -32.946500 6.574510 -2.745070 -24.259600 0.000000 0.000000 43.931100 -10.116700 0.000000 -13.820400 0.000000 0.000000 10.788100 -9.338730 -4.111390 7.778110 1.867650 -6.258470 -0.326103 7.816290 -2.928470 -3.493440 -5.072580 -7.672090 -0.628942 2.816280 -5.241690 3.189540 -0.000000 0.000000 0.000000 86.856800 19.938700 -28.405800 0.000000 0.000000 41.358400 -17.010800 0.000000 -7.393300 0.000000 0.000000 7.125020 -0.000000 0.000000 0.000000 -48.325300 -2.766180 22.306100 0.000000 0.000000 134.146000 -38.415500 0.000000 -15.206300 0.000000 0.000000 7.125020
-3.987160 17.036900 -14.162200 4.400400 4.598640 -1.608410 -23.813900 7.510830 4.129500 0.000000 0.000000 28.768200 15.904400 0.000000 -23.248100 0.000000 0.000000 -32.684400 6.225930 -2.232320 -24.531800 0.000000 0.000000 43.305300 -10.245000 0.000000 -13.513300 0.000000 0.000000 15.786300 -9.223480 -3.941900 7.811040 1.891320 -6.017800 -0.183387 7.756220 -2.820390 -3.417450 -5.161910 -7.886820 -0.858236 2.827490 -5.377090 3.265680 -0.000000 0.000000 0.000000 87.346000 19.333400 -28.167100 0.000000 0.000000 41.880000 -16.531700 0.000000 -7.241640 0.000000 0.000000 7.125020 -0.000000 0.000000 0.000000 -48.078600 -3.097740 22.405000 0.000000 0.000000 134.085000 -38.325300 0.000000 -15.343200 0.000000 0.000000 7.125020
-3.905010 17.052400 -14.280800 4.370080 4.701180 -1.396980 -23.942700 8.079110 3.476970 0.000000 0.000000 28.778300 15.012200 0.000000 -23.693400 0.000000 0.000000 -32.355300 5.845720 -1.809120 -24.789200 0.000000 0.000000 42.652300 -10.625000 0.000000 -13.404400 0.000000 0.000000 21.761700 -9.263510 -3.770980 7.785900 1.923450 -5.786070 -0.093427 7.790400 -2.711680 -3.346630 -5.555560 -8.064530 -0.917881 3.016500 -5.501300 3.340740 0.000000 -0.000000 0.000000 87.762700 18.714000 -28.057900 0.000000 0.000000 42.148400 -15.742100 0.000000 -6.940070 0.000000 0.000000 7.125020 0.000000 -0.000000 0.000000 -47.879500 -3.302530 22.449000 0.000000 0.000000 134.054000 -38.221300 0.000000 -15.247800 0.000000 0.000000 7.125020
-3.832990 17.060900 -14.398400 4.767440 4.858280 -1.110750 -24.510900 8.639200 2.722540 0.000000 0.000000 28.869400 14.100300 0.000000 -23.813000 0.000000 0.000000 -32.410900 5.087190 -1.704310 -25.068000 0.000000 0.000000 42.051000 -11.113600 0.000000 -13.135800 0.000000 0.000000 25.468900 -9.975180 -3.888090 7.770300 1.762050 -6.010550 -0.086825 8.029890 -2.819300 -3.233250 -5.364810 -7.885120 -0.558799 3.110060 -5.394450 3.207420 0.000000 0.000000 0.000000 87.301200 18.805000 -28.282500 0.000000 0.000000 42.224500 -15.461500 0.000000 -6.700260 0.000000 0.000000 7.125020 0.000000 0.000000 0.000000 -48.520500 -2.717620 22.769700 0.000000 0.000000 134.038000 -37.981300 0.000000 -15.101300 0.000000 0.000000 7.125020
-3.767370 17.070000 -14.512800 5.303820 4.986330 -0.815685 -25.275800 9.147370 1.919210 0.000000 0.000000 29.055600 13.436400 0.000000 -23.744800 0.000000 0.000000 -32.570300 4.227640 -1.550800 -25.318200 0.000000 0.000000 41.554200 -11.520800 0.000000 -13.284300 0.000000 0.000000 27.434500 -10.571300 -3.730740 7.676970 1.540280 -5.848530 -0.021462 8.105220 -2.739690 -3.111390 -5.632060 -8.020680 -0.453471 3.315090 -5.499120 3.259290 0.000000 -0.000000 0.000000 87.192500 18.625400 -28.264100 0.000000 0.000000 41.909300 -15.619100 0.000000 -6.559430 0.000000 0.000000 7.125020 0.000000 -0.000000 0.000000 -48.714800 -2.715980 22.571800 0.000000 0.000000 134.114000 -37.818300 0.000000 -15.335500 0.000000 0.000000 7.125020
-3.704980 17.087100 -14.621100 5.474930 5.060220 -0.597764 -25.747600 9.414760 1.143870 0.000000 0.000000 29.321100 13.156700 0.000000 -23.631900 0.000000 0.000000 -32.508200 3.787720 -1.214730 -25.457300 0.000000 0.000000 41.171200 -11.642900 0.000000 -14.710100 0.000000 0.000000 28.580100 -10.784700 -3.593860 7.600210 1.380630 -5.679180 0.023654 8.034880 -2.657790 -3.053220 -5.627650 -8.187580 -0.422271 3.099300 -5.604330 3.091820 0.000000 -0.000000 0.000000 86.818500 18.733400 -28.418800 0.000000 0.000000 41.359200 -15.800100 0.000000 -6.480120 0.000000 0.000000 7.125020 0.000000 -0.000000 0.000000 -49.048500 -2.642820 22.330700 0.000000 0.000000 134.261000 -37.918200 0.000000 -15.565100 0.000000 0.000000 7.125020
-3.644600 17.106500 -14.727200 5.250720 5.163930 -0.491259 -25.838800 9.443880 0.436891 0.000000 0.000000 29.656700 13.024400 0.000000 -23.565600 0.000000 0.000000 -32.102900 3.879060 -1.077290 -25.446100 0.000000 0.000000 40.874400 -11.831000 0.000000 -16.757300 0.000000 0.000000 27.859500 -10.567900 -3.465990 7.706040 1.348120 -5.503980 0.006149 7.878820 -2.564120 -3.191770 -5.720980 -8.295970 -0.447111 3.129080 -5.684620 3.221650 -0.000000 0.000000 0.000000 86.347200 19.042800 -28.762800 0.000000 0.000000 40.634300 -15.883300 0.000000 -6.405060 0.000000 0.000000 7.125020 -0.000000 0.000000 0.000000 -49.350200 -2.552450 22.113000 0.000000 0.000000 134.404000 -38.058200 0.000000 -15.444300 0.000000 0.000000 7.125020
-3.583770 17.125600 -14.832700 4.830740 5.275200 -0.435604 -25.754200 9.315610 -0.271558 0.000000 0.000000 30.075600 13.012100 0.000000 -23.507900 0.000000 0.000000 -31.616200 4.303990 -1.346800 -25.412500 0.000000 0.000000 40.665400 -12.309800 0.000000 -18.328400 0.000000 0.000000 25.516600 -10.160100 -3.386720 7.913110 1.422430 -5.383660 -0.026804 7.741620 -2.496270 -3.397130 -5.925470 -8.306120 -0.408119 3.203480 -5.701720 3.299150 0.000000 -0.000000 0.000000 85.743400 19.779400 -29.194800 0.000000 0.000000 39.813900 -15.781100 0.000000 -6.174410 0.000000 0.000000 7.125020 0.000000 -0.000000 0.000000 -49.517100 -2.254720 22.067700 0.000000 0.000000 134.483000 -38.335200 0.000000 -15.481600 0.000000 0.000000 7.125020
-3.527920 17.146300 -14.934500 4.253030 5.333050 -0.507743 -25.487300 9.109190 -0.859127 0.000000 0.000000 30.534600 13.145300 0.000000 -23.435900 0.000000 0.000000 -31.141000 4.939870 -1.659820 -25.330800 0.000000 0.000000 40.628700 -12.743600 0.000000 -19.284600 0.000000 0.000000 23.663000 -9.675390 -3.302610 8.122010 1.580660 -5.238130 0.064514 7.641000 -2.430320 -3.473940 -6.061150 -8.314690 -0.410270 3.238510 -5.708950 3.308430 -0.000000 0.000000 0.000000 85.099400 20.662100 -29.554600 0.000000 0.000000 38.900900 -15.643800 0.000000 -6.069650 0.000000 0.000000 7.125020 -0.000000 0.000000 0.000000 -49.606700 -1.939080 22.251000 0.000000 0.000000 134.513000 -38.658100 0.000000 -15.666400 0.000000 0.000000 7.125020
-3.480320 17.163400 -15.032200 3.614180 5.261030 -0.722438 -25.107500 8.949980 -1.255770 0.000000 0.000000 30.954800 13.333100 0.000000 -23.373700 0.000000 0.000000 -30.429700 5.667350 -1.875840 -25.174900 0.000000 0.000000 40.889100 -12.655800 0.000000 -19.905400 0.000000 0.000000 24.272900 -9.335430 -3.321530 8.351030 1.725100 -5.239110 0.266028 7.612500 -2.447720 -3.404260 -5.785630 -8.132740 -0.397160 3.192300 -5.579640 3.217190 0.000000 0.000000 0.000000 84.032300 21.802100 -30.024400 0.000000 0.000000 37.923000 -15.592900 0.000000 -6.308400 0.000000 0.000000 7.125020 0.000000 0.000000 0.000000 -50.101100 -1.438110 22.722100 0.000000 0.000000 134.485000 -38.517700 0.000000 -15.914400 0.000000 0.000000 7.125020
-3.435970 17.173600 -15.127000 3.287970 5.055810 -0.869724 -25.062900 8.890000 -1.654920 0.000000 0.000000 31.317700 13.577500 0.000000 -23.257600 0.000000 0.000000 -29.899900 6.108790 -2.268320 -25.127600 0.000000 0.000000 41.515300 -11.872600 0.000000 -20.177200 0.000000 0.000000 25.413600 -9.165780 -3.158130 8.558380 1.797760 -5.014680 0.439945 7.585650 -2.345730 -3.387830 -5.802850 -8.079650 -0.384435 3.216750 -5.539140 3.128160 -0.000000 0.000000 0.000000 83.158800 22.717500 -30.473600 0.000000 0.000000 36.791400 -15.572000 0.000000 -6.640000 0.000000 0.000000 7.125020 -0.000000 0.000000 0.000000 -50.305900 -1.465840 22.979900 0.000000 0.000000 134.448000 -38.139100 0.000000 -16.122400 0.000000 0.000000 7.125020
-3.397580 17.178400 -15.218700 3.373940 4.835290 -0.877837 -25.451900 8.874660 -2.150930 0.000000 0.000000 31.657600 13.800700 0.000000 -23.154800 0.000000 0.000000 -29.549600 6.219290 -3.003160 -25.210600 0.000000 0.000000 42.514800 -10.809000 0.000000 -20.105600 0.000000 0.000000 24.926600 -9.372540 -2.979050 8.700640 1.735710 -4.808670 0.523820 7.627340 -2.242010 -3.407560 -5.847630 -8.040430 -0.253700 3.248560 -5.511460 2.987590 0.000000 0.000000 0.000000 81.981900 24.135700 -30.999100 0.000000 0.000000 35.525300 -15.502600 0.000000 -6.793330 0.000000 0.000000 7.125020 0.000000 0.000000 0.000000 -50.570900 -1.626510 23.149500 0.000000 0.000000 134.460000 -37.849500 0.000000 -15.979600 0.000000 0.000000 7.125020
-3.369420 17.177000 -15.308100 3.564800 4.675370 -0.847038 -25.915200 8.805760 -2.682550 0.000000 0.000000 31.996700 13.985600 0.000000 -23.106000 0.000000 0.000000 -29.056600 6.304820 -3.761560 -25.290800 0.000000 0.000000 43.834000 -9.868410 0.000000 -20.117400 0.000000 0.000000 24.508100 -9.712270 -2.795840 8.840230 1.633980 -4.613450 0.580953 7.703100 -2.139700 -3.445930 -5.982600 -8.014710 -0.266168 3.317410 -5.490790 2.911350 0.000000 -0.000000 0.000000 80.777400 25.140800 -31.631000 0.000000 0.000000 34.303500 -15.291200 0.000000 -7.083240 0.000000 0.000000 7.125020 0.000000 -0.000000 0.000000 -50.867600 -1.685290 23.176200 0.000000 0.000000 134.548000 -37.525500 0.000000 -15.912300 0.000000 0.000000 7.125020
